<?xml version="1.0" encoding="UTF-8" standalone="no"?>
<!DOCTYPE svg PUBLIC "-//W3C//DTD SVG 1.1//EN" "http://www.w3.org/Graphics/SVG/1.1/DTD/svg11.dtd">
<svg width="100%" height="100%" viewBox="0 0 1200 1200" version="1.1" xmlns="http://www.w3.org/2000/svg" xmlns:xlink="http://www.w3.org/1999/xlink" xml:space="preserve" xmlns:serif="http://www.serif.com/" style="fill-rule:evenodd;clip-rule:evenodd;stroke-linejoin:round;stroke-miterlimit:2;">
    <g>
        <g transform="matrix(1.447078,0,0,1.447078,-268.246192,-380.016724)">
            <path d="M1000.57,745.016C956.139,701.059 900.052,673.051 838.351,664.017C830.48,662.863 823.152,668.356 822.015,676.201C820.865,684.062 826.326,691.399 834.191,692.556C884.654,699.94 931.225,721.576 969.326,755.262C922.455,796.636 862.272,819.959 799.035,821.103C738.92,822.23 680.867,803.156 633.753,767.31C777.283,748.854 889.346,626.06 890.146,478.429C890.168,474.605 888.629,470.859 885.938,468.165C883.041,465.25 879.149,463.658 875.409,463.93C814.284,464.316 755.908,483.431 706.58,519.221C700.15,523.896 698.719,532.932 703.387,539.363C705.652,542.474 708.989,544.522 712.788,545.128C716.588,545.733 720.41,544.824 723.528,542.559C763.836,513.306 811.158,496.336 860.803,493.267C856.729,558.588 828.484,619.641 780.789,665.864C739.502,705.881 687.43,730.984 631.541,738.466C720.056,624.094 713,458.571 609.744,354.188C607.114,351.526 603.377,350 599.491,350C595.608,350 591.872,351.526 589.243,354.185C545.285,398.621 517.276,454.709 508.25,516.392C507.1,524.254 512.56,531.591 520.464,532.751C528.329,533.859 535.641,528.389 536.782,520.567C544.168,470.114 565.802,423.541 599.482,385.434C642.456,434.191 665.375,497.006 664.159,563.137C663.105,620.372 643.984,674.756 609.807,719.472C591.51,577.132 470.213,465.498 324.438,463.996C320.504,463.97 316.838,465.437 314.079,468.167C311.365,470.856 309.806,474.591 309.806,478.414L309.806,505.176C309.806,505.648 309.829,506.127 309.88,506.637C314.871,555.681 332.469,602.976 360.768,643.411C365.312,649.911 374.311,651.503 380.851,646.957C384.006,644.749 386.113,641.444 386.781,637.652C387.451,633.858 386.605,630.031 384.395,626.876C359.054,590.671 343.237,548.339 338.642,504.434L338.642,493.391C403.213,497.689 463.588,525.985 509.281,573.529C548.759,614.604 573.542,666.275 580.96,721.641C467.409,634.18 302.845,642.795 199.467,744.057C196.701,746.775 195.168,750.408 195.149,754.272C195.127,758.102 196.669,761.849 199.374,764.546L218.24,783.407C218.591,783.768 218.958,784.1 219.38,784.448C270.945,826.476 336.1,849.622 402.852,849.62L403.411,849.62C455.58,849.58 506.745,835.564 551.375,809.086C554.686,807.122 557.036,803.983 557.988,800.252C558.943,796.518 558.384,792.638 556.423,789.331C554.463,786.019 551.327,783.669 547.594,782.716C543.855,781.755 539.969,782.32 536.657,784.284C496.505,808.107 450.451,820.728 403.459,820.783L402.721,820.783C342.88,820.751 284.455,800.073 238.166,762.549L230.352,754.741C279.097,712.039 341.663,689.198 407.483,690.238C475.649,691.337 539.608,718.06 587.58,765.485C587.596,765.501 587.612,765.516 587.629,765.532C587.63,765.534 587.63,765.535 587.631,765.536C587.632,765.537 587.634,765.538 587.635,765.539C587.662,765.566 587.69,765.594 587.718,765.621C642.766,820.036 716.027,850 794.038,850L794.076,850C872.164,849.997 945.501,819.993 1000.58,765.513C1003.29,762.822 1004.85,759.087 1004.85,755.265C1004.85,751.441 1003.29,747.706 1000.57,745.016Z" style="fill:white;fill-rule:nonzero;"/>
        </g>
        <g transform="matrix(1,0,0,1,99,-49)">
            <g transform="matrix(216,0,0,216,807.601562,1083.039062)">
            </g>
            <text x="148px" y="1083.039px" style="font-family:'DINAlternate-Bold', 'DIN Alternate', sans-serif;font-weight:700;font-size:216px;fill:white;">acalmo</text>
        </g>
    </g>
</svg>
